<svg width="147" height="48" viewBox="0 0 147 48" fill="none" xmlns="http://www.w3.org/2000/svg">
<rect width="147" height="48" rx="24" fill="#C7E957"/>
<path d="M28.2799 32V23.84H34.0879V32H36.4879V14H34.0879V21.632H28.2799V14H25.8799V32H28.2799ZM43.3922 32.24C45.1202 32.24 46.6562 31.568 47.4482 29.984V32H49.8002V23.6C49.8002 20.816 47.4002 19.76 44.8082 19.76C42.1682 19.76 39.6722 20.936 39.6722 24.032H42.1682C42.1682 22.472 43.2482 21.68 44.8082 21.68C46.2722 21.68 47.4002 22.328 47.4002 23.504C47.4002 26.24 39.3122 23.648 39.3122 28.832C39.3122 31.208 41.2562 32.24 43.3922 32.24ZM41.7602 28.688C41.7602 26.672 45.4082 27.176 47.4482 26.192V27.056C47.4482 29.144 45.7202 30.224 43.8722 30.224C42.6482 30.224 41.7602 29.72 41.7602 28.688ZM53.0315 32H59.1755C61.6715 32 63.2075 30.848 63.2075 28.544C63.2075 27.032 62.3675 26.072 61.0475 25.64C62.0795 25.208 62.7035 24.392 62.7035 23.12C62.7035 21.032 61.1915 20 58.9835 20H53.0315V32ZM58.2875 21.824C59.7755 21.824 60.3995 22.304 60.3995 23.384C60.3995 24.392 59.7755 24.944 58.2875 24.944H55.3355V21.824H58.2875ZM58.7675 26.768C60.1115 26.768 60.8075 27.368 60.8075 28.472C60.8075 29.576 60.1115 30.176 58.7675 30.176H55.3355V26.768H58.7675ZM77.0925 26.816C77.1165 26.552 77.1405 26.288 77.1405 26C77.1405 22.328 74.6445 19.76 71.2365 19.76C67.8285 19.76 65.3325 22.328 65.3325 26C65.3325 29.672 67.8285 32.24 71.2365 32.24C73.9965 32.24 76.0845 30.872 76.8285 28.4H74.2365C73.7565 29.48 72.7965 30.128 71.3325 30.128C69.3165 30.128 67.9725 28.904 67.6845 26.816H77.0925ZM71.2365 21.872C73.1565 21.872 74.4765 23.072 74.7645 25.088H67.7085C67.9965 23.072 69.2925 21.872 71.2365 21.872ZM82.1143 38V30.2C83.0503 31.472 84.4423 32.24 86.0503 32.24C89.3383 32.24 91.8103 29.672 91.8103 26C91.8103 22.328 89.3383 19.76 86.0503 19.76C84.4423 19.76 83.0503 20.528 82.1143 21.8V20H79.7143V38H82.1143ZM85.7623 30.032C83.6743 30.032 82.1143 28.424 82.1143 26C82.1143 23.576 83.6743 21.968 85.7623 21.968C87.8503 21.968 89.4103 23.576 89.4103 26C89.4103 28.424 87.8503 30.032 85.7623 30.032ZM95.2735 32L98.4895 27.56L101.946 32H104.754L100.05 25.856L104.514 20H101.706L98.6815 24.08L95.5135 20H92.7055L97.1695 25.784L92.4655 32H95.2735ZM121.389 24.848L116.301 19.76L111.189 24.848L112.389 26.048L115.461 23V30.8H117.093V22.952L120.189 26.048L121.389 24.848Z" fill="black"/>
</svg>
