<svg width="360" height="480" viewBox="0 0 360 480" fill="none" xmlns="http://www.w3.org/2000/svg">
<g clip-path="url(#clip0_26_1275)">
<rect width="360" height="480" rx="29.9978" fill="white"/>
<path d="M303.398 400.021C308.921 409.587 305.643 421.819 296.077 427.341L259.316 448.565C249.751 454.088 237.519 450.811 231.996 441.245L175.285 343.019C169.762 333.453 173.04 321.221 182.606 315.698L219.367 294.474C228.932 288.952 241.164 292.229 246.687 301.795L303.398 400.021Z" fill="#FF9E00"/>
<path d="M171.248 284.606C154.849 282.241 143.472 267.03 145.837 250.631L153.303 198.861C155.668 182.462 170.879 171.085 187.278 173.45L386.835 202.228C403.234 204.593 414.61 219.804 412.245 236.203L404.78 287.974C402.415 304.373 387.204 315.75 370.805 313.385L171.248 284.606Z" fill="#FFB53D"/>
<g filter="url(#filter0_b_26_1275)">
<path fill-rule="evenodd" clip-rule="evenodd" d="M30 0C13.4315 0 0 13.4315 0 30V450C0 466.569 13.4315 480 30 480H330C346.569 480 360 466.569 360 450V30C360 13.4315 346.569 0 330 0H30ZM317.474 306.695C317.474 315.531 310.31 322.695 301.474 322.695H266.826C257.989 322.695 250.826 329.858 250.826 338.695V373.343C250.826 382.179 243.662 389.343 234.826 389.343H145.648C136.811 389.343 129.648 382.179 129.648 373.343V338.695C129.648 329.858 122.484 322.695 113.648 322.695H79C70.1635 322.695 63 315.531 63 306.695L63 217.517C63 208.68 70.1635 201.517 79 201.517H113.648C122.484 201.517 129.648 194.353 129.648 185.517V150.869C129.648 142.033 136.811 134.869 145.648 134.869L234.826 134.869C243.662 134.869 250.826 142.033 250.826 150.869V185.517C250.826 194.353 257.989 201.517 266.826 201.517H301.474C310.31 201.517 317.474 208.68 317.474 217.517V306.695Z" fill="#CDCDCD" fill-opacity="0.1"/>
</g>
<g style="mix-blend-mode:multiply" opacity="0.36" filter="url(#filter1_i_26_1275)">
<path fill-rule="evenodd" clip-rule="evenodd" d="M301.474 322.695C310.31 322.695 317.474 315.531 317.474 306.695V217.517C317.474 208.68 310.31 201.517 301.474 201.517H266.826C257.989 201.517 250.826 194.353 250.826 185.517V150.869C250.826 142.032 243.662 134.869 234.826 134.869L145.648 134.869C136.811 134.869 129.648 142.032 129.648 150.869V185.517C129.648 194.353 122.484 201.517 113.648 201.517H79C70.1635 201.517 63 208.68 63 217.517L63 306.695C63 315.531 70.1634 322.695 79 322.695H113.648C122.484 322.695 129.648 329.858 129.648 338.695V373.343C129.648 382.179 136.811 389.343 145.648 389.343H234.826C243.662 389.343 250.826 382.179 250.826 373.343V338.695C250.826 329.858 257.989 322.695 266.826 322.695H301.474Z" fill="white"/>
</g>
<path d="M43.14 59H37.704V37.832H30.72V33.296H50.124V37.832H43.14V59ZM58.3368 38.948C60.9768 38.948 62.9928 39.524 64.3848 40.676C65.8008 41.804 66.5088 43.544 66.5088 45.896V59H62.7648L61.7208 56.336H61.5768C61.0248 57.032 60.4488 57.608 59.8488 58.064C59.2728 58.52 58.6008 58.844 57.8328 59.036C57.0888 59.252 56.1648 59.36 55.0608 59.36C53.9088 59.36 52.8648 59.144 51.9288 58.712C51.0168 58.256 50.2968 57.572 49.7688 56.66C49.2408 55.724 48.9768 54.548 48.9768 53.132C48.9768 51.044 49.7088 49.508 51.1728 48.524C52.6368 47.516 54.8328 46.964 57.7608 46.868L61.1808 46.76V45.896C61.1808 44.864 60.9048 44.108 60.3528 43.628C59.8248 43.148 59.0808 42.908 58.1208 42.908C57.1608 42.908 56.2248 43.052 55.3128 43.34C54.4008 43.604 53.4888 43.94 52.5768 44.348L50.8128 40.712C51.8688 40.16 53.0328 39.728 54.3048 39.416C55.6008 39.104 56.9448 38.948 58.3368 38.948ZM59.0928 49.964C57.3648 50.012 56.1648 50.324 55.4928 50.9C54.8208 51.476 54.4848 52.232 54.4848 53.168C54.4848 53.984 54.7248 54.572 55.2048 54.932C55.6848 55.268 56.3088 55.436 57.0768 55.436C58.2288 55.436 59.2008 55.1 59.9928 54.428C60.7848 53.732 61.1808 52.76 61.1808 51.512V49.892L59.0928 49.964ZM76.8634 39.344V46.904H84.3514V39.344H89.7154V59H84.3514V50.9H76.8634V59H71.4994V39.344H76.8634ZM116.291 66.056H111.467V59H94.8353V39.344H100.199V54.968H108.047V39.344H113.411V55.076H116.291V66.056ZM127.221 38.984C129.045 38.984 130.605 39.332 131.901 40.028C133.221 40.724 134.241 41.732 134.961 43.052C135.681 44.372 136.041 45.992 136.041 47.912V50.504H123.369C123.417 52.016 123.861 53.204 124.701 54.068C125.565 54.932 126.753 55.364 128.265 55.364C129.537 55.364 130.689 55.244 131.721 55.004C132.753 54.74 133.821 54.344 134.925 53.816V57.956C133.965 58.436 132.945 58.784 131.865 59C130.809 59.24 129.525 59.36 128.013 59.36C126.045 59.36 124.305 59 122.793 58.28C121.281 57.536 120.093 56.42 119.229 54.932C118.365 53.444 117.933 51.572 117.933 49.316C117.933 47.012 118.317 45.104 119.085 43.592C119.877 42.056 120.969 40.904 122.361 40.136C123.753 39.368 125.373 38.984 127.221 38.984ZM127.257 42.8C126.225 42.8 125.361 43.136 124.665 43.808C123.993 44.48 123.597 45.524 123.477 46.94H131.001C131.001 46.148 130.857 45.44 130.569 44.816C130.305 44.192 129.897 43.7 129.345 43.34C128.793 42.98 128.097 42.8 127.257 42.8ZM157.314 44.492C157.314 45.548 156.978 46.448 156.306 47.192C155.658 47.936 154.686 48.416 153.39 48.632V48.776C154.758 48.944 155.85 49.412 156.666 50.18C157.506 50.948 157.926 51.932 157.926 53.132C157.926 53.972 157.758 54.752 157.422 55.472C157.11 56.192 156.606 56.816 155.91 57.344C155.214 57.872 154.314 58.28 153.21 58.568C152.13 58.856 150.81 59 149.25 59H139.89V39.344H149.25C150.786 39.344 152.154 39.512 153.354 39.848C154.578 40.16 155.538 40.688 156.234 41.432C156.954 42.176 157.314 43.196 157.314 44.492ZM152.382 52.844C152.382 52.076 152.082 51.524 151.482 51.188C150.882 50.828 149.982 50.648 148.782 50.648H145.254V55.292H148.89C149.898 55.292 150.726 55.112 151.374 54.752C152.046 54.368 152.382 53.732 152.382 52.844ZM151.878 44.924C151.878 44.3 151.638 43.844 151.158 43.556C150.678 43.268 149.97 43.124 149.034 43.124H145.254V47.012H148.422C149.55 47.012 150.402 46.856 150.978 46.544C151.578 46.208 151.878 45.668 151.878 44.924ZM170.095 38.948C172.735 38.948 174.751 39.524 176.143 40.676C177.559 41.804 178.267 43.544 178.267 45.896V59H174.523L173.479 56.336H173.335C172.783 57.032 172.207 57.608 171.607 58.064C171.031 58.52 170.359 58.844 169.591 59.036C168.847 59.252 167.923 59.36 166.819 59.36C165.667 59.36 164.623 59.144 163.687 58.712C162.775 58.256 162.055 57.572 161.527 56.66C160.999 55.724 160.735 54.548 160.735 53.132C160.735 51.044 161.467 49.508 162.931 48.524C164.395 47.516 166.591 46.964 169.519 46.868L172.939 46.76V45.896C172.939 44.864 172.663 44.108 172.111 43.628C171.583 43.148 170.839 42.908 169.879 42.908C168.919 42.908 167.983 43.052 167.071 43.34C166.159 43.604 165.247 43.94 164.335 44.348L162.571 40.712C163.627 40.16 164.791 39.728 166.063 39.416C167.359 39.104 168.703 38.948 170.095 38.948ZM170.851 49.964C169.123 50.012 167.923 50.324 167.251 50.9C166.579 51.476 166.243 52.232 166.243 53.168C166.243 53.984 166.483 54.572 166.963 54.932C167.443 55.268 168.067 55.436 168.835 55.436C169.987 55.436 170.959 55.1 171.751 54.428C172.543 53.732 172.939 52.76 172.939 51.512V49.892L170.851 49.964ZM200.861 59H195.497V43.376H190.565C190.325 46.256 190.025 48.716 189.665 50.756C189.329 52.772 188.897 54.416 188.369 55.688C187.865 56.96 187.217 57.896 186.425 58.496C185.633 59.072 184.661 59.36 183.509 59.36C182.885 59.36 182.321 59.312 181.817 59.216C181.313 59.12 180.857 58.976 180.449 58.784V54.5C180.713 54.596 180.989 54.68 181.277 54.752C181.565 54.824 181.865 54.86 182.177 54.86C182.513 54.86 182.825 54.728 183.113 54.464C183.425 54.2 183.713 53.732 183.977 53.06C184.265 52.388 184.529 51.464 184.769 50.288C185.009 49.112 185.225 47.636 185.417 45.86C185.633 44.06 185.825 41.888 185.993 39.344H200.861V59ZM215.104 46.94C217.12 46.94 218.788 47.156 220.108 47.588C221.428 47.996 222.4 48.632 223.024 49.496C223.672 50.36 223.996 51.44 223.996 52.736C223.996 54.008 223.696 55.112 223.096 56.048C222.52 56.984 221.596 57.716 220.324 58.244C219.052 58.748 217.384 59 215.32 59H205.96V39.344H211.324V46.94H215.104ZM218.632 52.808C218.632 52.04 218.32 51.488 217.696 51.152C217.096 50.816 216.196 50.648 214.996 50.648H211.324V55.292H215.068C216.124 55.292 216.976 55.1 217.624 54.716C218.296 54.332 218.632 53.696 218.632 52.808ZM232.938 39.344V46.904H240.426V39.344H245.79V59H240.426V50.9H232.938V59H227.574V39.344H232.938ZM250.91 59V39.344H256.274V46.94H258.866C260.882 46.94 262.538 47.156 263.834 47.588C265.13 47.996 266.09 48.632 266.714 49.496C267.362 50.36 267.686 51.44 267.686 52.736C267.686 54.008 267.386 55.112 266.786 56.048C266.21 56.984 265.286 57.716 264.014 58.244C262.766 58.748 261.11 59 259.046 59H250.91ZM258.758 55.292C259.814 55.292 260.666 55.1 261.314 54.716C261.986 54.332 262.322 53.696 262.322 52.808C262.322 52.04 262.01 51.488 261.386 51.152C260.786 50.816 259.886 50.648 258.686 50.648H256.274V55.292H258.758ZM270.53 59V39.344H275.894V59H270.53ZM299.824 30.884C299.704 32.132 299.356 33.236 298.78 34.196C298.204 35.132 297.304 35.864 296.08 36.392C294.856 36.92 293.212 37.184 291.148 37.184C289.036 37.184 287.38 36.932 286.18 36.428C285.004 35.9 284.164 35.168 283.66 34.232C283.156 33.296 282.856 32.18 282.76 30.884H287.548C287.668 32.204 288.004 33.08 288.556 33.512C289.108 33.944 290.008 34.16 291.256 34.16C292.288 34.16 293.128 33.932 293.776 33.476C294.448 32.996 294.844 32.132 294.964 30.884H299.824ZM286.18 47.12C286.18 47.528 286.156 48.032 286.108 48.632C286.084 49.232 286.048 49.844 286 50.468C285.976 51.092 285.94 51.644 285.892 52.124C285.844 52.604 285.808 52.94 285.784 53.132L294.856 39.344H301.3V59H296.116V51.152C296.116 50.504 296.14 49.796 296.188 49.028C296.236 48.236 296.284 47.504 296.332 46.832C296.404 46.136 296.452 45.608 296.476 45.248L287.439 59H280.996V39.344H286.18V47.12ZM47.172 79.236C49.452 79.428 51.372 79.968 52.932 80.856C54.492 81.72 55.668 82.86 56.46 84.276C57.276 85.692 57.684 87.324 57.684 89.172C57.684 90.996 57.288 92.628 56.496 94.068C55.728 95.508 54.564 96.672 53.004 97.56C51.468 98.424 49.524 98.952 47.172 99.144V107.64H42.204V99.144C39.948 98.928 38.028 98.388 36.444 97.524C34.884 96.636 33.684 95.484 32.844 94.068C32.028 92.628 31.62 90.996 31.62 89.172C31.62 87.3 31.992 85.644 32.736 84.204C33.504 82.764 34.668 81.612 36.228 80.748C37.812 79.884 39.804 79.38 42.204 79.236V71.64H47.172V79.236ZM42.204 83.268C41.172 83.412 40.272 83.76 39.504 84.312C38.736 84.84 38.148 85.524 37.74 86.364C37.332 87.18 37.128 88.116 37.128 89.172C37.128 90.228 37.32 91.176 37.704 92.016C38.112 92.856 38.688 93.54 39.432 94.068C40.2 94.596 41.124 94.932 42.204 95.076V83.268ZM47.172 95.076C48.252 94.932 49.164 94.596 49.908 94.068C50.652 93.54 51.216 92.856 51.6 92.016C51.984 91.176 52.176 90.228 52.176 89.172C52.176 88.116 51.972 87.18 51.564 86.364C51.156 85.524 50.58 84.84 49.836 84.312C49.092 83.784 48.204 83.46 47.172 83.34V95.076ZM66.8123 87.12C66.8123 87.528 66.7883 88.032 66.7403 88.632C66.7163 89.232 66.6803 89.844 66.6323 90.468C66.6083 91.092 66.5723 91.644 66.5243 92.124C66.4763 92.604 66.4403 92.94 66.4163 93.132L75.4883 79.344H81.9323V99H76.7483V91.152C76.7483 90.504 76.7723 89.796 76.8203 89.028C76.8683 88.236 76.9163 87.504 76.9643 86.832C77.0363 86.136 77.0843 85.608 77.1083 85.248L68.0723 99H61.6283V79.344H66.8123V87.12ZM103.31 83.376H96.8665V99H91.5025V83.376H85.0585V79.344H103.31V83.376ZM111.801 79.344V86.904H119.289V79.344H124.653V99H119.289V90.9H111.801V99H106.437V79.344H111.801ZM137.873 78.984C139.697 78.984 141.257 79.332 142.553 80.028C143.873 80.724 144.893 81.732 145.613 83.052C146.333 84.372 146.693 85.992 146.693 87.912V90.504H134.021C134.069 92.016 134.513 93.204 135.353 94.068C136.217 94.932 137.405 95.364 138.917 95.364C140.189 95.364 141.341 95.244 142.373 95.004C143.405 94.74 144.473 94.344 145.577 93.816V97.956C144.617 98.436 143.597 98.784 142.517 99C141.461 99.24 140.177 99.36 138.665 99.36C136.697 99.36 134.957 99 133.445 98.28C131.933 97.536 130.745 96.42 129.881 94.932C129.017 93.444 128.585 91.572 128.585 89.316C128.585 87.012 128.969 85.104 129.737 83.592C130.529 82.056 131.621 80.904 133.013 80.136C134.405 79.368 136.025 78.984 137.873 78.984ZM137.909 82.8C136.877 82.8 136.013 83.136 135.317 83.808C134.645 84.48 134.249 85.524 134.129 86.94H141.653C141.653 86.148 141.509 85.44 141.221 84.816C140.957 84.192 140.549 83.7 139.997 83.34C139.445 82.98 138.749 82.8 137.909 82.8ZM158.534 99.36C156.59 99.36 154.934 99.012 153.566 98.316C152.198 97.596 151.154 96.492 150.434 95.004C149.714 93.516 149.354 91.608 149.354 89.28C149.354 86.88 149.762 84.924 150.578 83.412C151.394 81.9 152.522 80.784 153.962 80.064C155.426 79.344 157.106 78.984 159.002 78.984C160.346 78.984 161.51 79.116 162.494 79.38C163.502 79.644 164.378 79.956 165.122 80.316L163.538 84.456C162.698 84.12 161.906 83.844 161.162 83.628C160.442 83.412 159.722 83.304 159.002 83.304C158.066 83.304 157.286 83.532 156.662 83.988C156.038 84.42 155.57 85.08 155.258 85.968C154.97 86.832 154.826 87.924 154.826 89.244C154.826 90.54 154.982 91.62 155.294 92.484C155.63 93.324 156.11 93.96 156.734 94.392C157.358 94.8 158.114 95.004 159.002 95.004C160.13 95.004 161.126 94.86 161.99 94.572C162.854 94.26 163.694 93.84 164.51 93.312V97.884C163.694 98.412 162.83 98.784 161.918 99C161.03 99.24 159.902 99.36 158.534 99.36Z" fill="black"/>
</g>
<defs>
<filter id="filter0_b_26_1275" x="-29.0373" y="-29.0373" width="418.075" height="538.075" filterUnits="userSpaceOnUse" color-interpolation-filters="sRGB">
<feFlood flood-opacity="0" result="BackgroundImageFix"/>
<feGaussianBlur in="BackgroundImageFix" stdDeviation="14.5187"/>
<feComposite in2="SourceAlpha" operator="in" result="effect1_backgroundBlur_26_1275"/>
<feBlend mode="normal" in="SourceGraphic" in2="effect1_backgroundBlur_26_1275" result="shape"/>
</filter>
<filter id="filter1_i_26_1275" x="63" y="134.869" width="264.989" height="264.989" filterUnits="userSpaceOnUse" color-interpolation-filters="sRGB">
<feFlood flood-opacity="0" result="BackgroundImageFix"/>
<feBlend mode="normal" in="SourceGraphic" in2="BackgroundImageFix" result="shape"/>
<feColorMatrix in="SourceAlpha" type="matrix" values="0 0 0 0 0 0 0 0 0 0 0 0 0 0 0 0 0 0 127 0" result="hardAlpha"/>
<feOffset dx="10.5156" dy="10.5156"/>
<feGaussianBlur stdDeviation="5.69592"/>
<feComposite in2="hardAlpha" operator="arithmetic" k2="-1" k3="1"/>
<feColorMatrix type="matrix" values="0 0 0 0 1 0 0 0 0 0.427451 0 0 0 0 0 0 0 0 0.5 0"/>
<feBlend mode="normal" in2="shape" result="effect1_innerShadow_26_1275"/>
</filter>
<clipPath id="clip0_26_1275">
<rect width="360" height="480" rx="29.9978" fill="white"/>
</clipPath>
</defs>
</svg>
