<svg width="360" height="480" viewBox="0 0 360 480" fill="none" xmlns="http://www.w3.org/2000/svg">
<g clip-path="url(#clip0_26_1300)">
<rect width="360" height="480" rx="29.9978" fill="white"/>
<rect x="170.45" y="133" width="273.699" height="106.502" rx="53.251" transform="rotate(30 170.45 133)" fill="#E1FF8F"/>
<circle cx="151.467" cy="345.175" r="85.4442" transform="rotate(35.3222 151.467 345.175)" fill="#BCEC30"/>
<g filter="url(#filter0_b_26_1300)">
<path fill-rule="evenodd" clip-rule="evenodd" d="M-146 0C-162.569 0 -176 13.4315 -176 30V450C-176 466.569 -162.569 480 -146 480H354C370.569 480 384 466.569 384 450V30C384 13.4315 370.569 0 354 0H-146ZM67.5234 247.126C67.5234 219.514 89.9074 197.13 117.52 197.13H272.966C300.578 197.13 322.962 219.514 322.962 247.126C322.962 263.424 315.164 277.9 303.096 287.027C315.164 296.154 322.962 310.63 322.962 326.928C322.962 354.54 300.578 376.924 272.966 376.924H117.52C89.9075 376.924 67.5234 354.54 67.5234 326.928C67.5234 310.63 75.3213 296.154 87.3895 287.027C75.3213 277.9 67.5234 263.424 67.5234 247.126Z" fill="#CDCDCD" fill-opacity="0.1"/>
</g>
<path d="M44.148 37.472C43.116 37.472 42.192 37.676 41.376 38.084C40.584 38.492 39.912 39.08 39.36 39.848C38.808 40.592 38.388 41.504 38.1 42.584C37.836 43.664 37.704 44.876 37.704 46.22C37.704 48.044 37.92 49.604 38.352 50.9C38.808 52.172 39.516 53.144 40.476 53.816C41.436 54.488 42.66 54.824 44.148 54.824C45.204 54.824 46.248 54.704 47.28 54.464C48.336 54.224 49.476 53.888 50.7 53.456V58.028C49.572 58.484 48.456 58.82 47.352 59.036C46.248 59.252 45.012 59.36 43.644 59.36C41.004 59.36 38.82 58.82 37.092 57.74C35.388 56.636 34.128 55.1 33.312 53.132C32.496 51.14 32.088 48.824 32.088 46.184C32.088 44.24 32.352 42.464 32.88 40.856C33.408 39.224 34.176 37.82 35.184 36.644C36.216 35.468 37.476 34.556 38.964 33.908C40.476 33.26 42.204 32.936 44.148 32.936C45.42 32.936 46.692 33.104 47.964 33.44C49.26 33.752 50.496 34.184 51.672 34.736L49.908 39.164C48.948 38.708 47.976 38.312 46.992 37.976C46.032 37.64 45.084 37.472 44.148 37.472ZM71.5019 43.376H65.0579V59H59.6939V43.376H53.2499V39.344H71.5019V43.376ZM82.3768 38.984C84.2008 38.984 85.7608 39.332 87.0568 40.028C88.3768 40.724 89.3968 41.732 90.1168 43.052C90.8368 44.372 91.1968 45.992 91.1968 47.912V50.504H78.5248C78.5728 52.016 79.0168 53.204 79.8568 54.068C80.7208 54.932 81.9088 55.364 83.4208 55.364C84.6928 55.364 85.8448 55.244 86.8768 55.004C87.9088 54.74 88.9768 54.344 90.0808 53.816V57.956C89.1208 58.436 88.1008 58.784 87.0208 59C85.9648 59.24 84.6808 59.36 83.1688 59.36C81.2008 59.36 79.4608 59 77.9488 58.28C76.4368 57.536 75.2488 56.42 74.3848 54.932C73.5208 53.444 73.0888 51.572 73.0888 49.316C73.0888 47.012 73.4728 45.104 74.2408 43.592C75.0328 42.056 76.1248 40.904 77.5168 40.136C78.9088 39.368 80.5288 38.984 82.3768 38.984ZM82.4128 42.8C81.3808 42.8 80.5168 43.136 79.8208 43.808C79.1488 44.48 78.7528 45.524 78.6328 46.94H86.1568C86.1568 46.148 86.0128 45.44 85.7248 44.816C85.4608 44.192 85.0528 43.7 84.5008 43.34C83.9488 42.98 83.2528 42.8 82.4128 42.8ZM112.902 39.344V59H107.538V43.376H100.41V59H95.0463V39.344H112.902ZM116.734 51.0547H123.836V52.4258H116.734V51.0547ZM136.036 38.948C138.676 38.948 140.692 39.524 142.084 40.676C143.5 41.804 144.208 43.544 144.208 45.896V59H140.464L139.42 56.336H139.276C138.724 57.032 138.148 57.608 137.548 58.064C136.972 58.52 136.3 58.844 135.532 59.036C134.788 59.252 133.864 59.36 132.76 59.36C131.608 59.36 130.564 59.144 129.628 58.712C128.716 58.256 127.996 57.572 127.468 56.66C126.94 55.724 126.676 54.548 126.676 53.132C126.676 51.044 127.408 49.508 128.872 48.524C130.336 47.516 132.532 46.964 135.46 46.868L138.88 46.76V45.896C138.88 44.864 138.604 44.108 138.052 43.628C137.524 43.148 136.78 42.908 135.82 42.908C134.86 42.908 133.924 43.052 133.012 43.34C132.1 43.604 131.188 43.94 130.276 44.348L128.512 40.712C129.568 40.16 130.732 39.728 132.004 39.416C133.3 39.104 134.644 38.948 136.036 38.948ZM136.792 49.964C135.064 50.012 133.864 50.324 133.192 50.9C132.52 51.476 132.184 52.232 132.184 53.168C132.184 53.984 132.424 54.572 132.904 54.932C133.384 55.268 134.008 55.436 134.776 55.436C135.928 55.436 136.9 55.1 137.692 54.428C138.484 53.732 138.88 52.76 138.88 51.512V49.892L136.792 49.964ZM153.735 59.36C152.487 59.36 151.371 59.264 150.387 59.072C149.427 58.88 148.527 58.568 147.687 58.136V53.96C148.551 54.344 149.463 54.68 150.423 54.968C151.407 55.232 152.415 55.364 153.447 55.364C154.263 55.364 154.971 55.22 155.571 54.932C156.171 54.62 156.651 54.128 157.011 53.456C157.371 52.784 157.587 51.92 157.659 50.864H150.243V47.3H157.659C157.563 45.836 157.203 44.744 156.579 44.024C155.979 43.304 155.079 42.944 153.879 42.944C153.039 42.944 152.223 43.064 151.431 43.304C150.663 43.52 149.955 43.772 149.307 44.06L147.795 40.388C148.563 40.052 149.487 39.74 150.567 39.452C151.671 39.14 152.847 38.984 154.095 38.984C155.823 38.984 157.371 39.284 158.739 39.884C160.107 40.484 161.187 41.504 161.979 42.944C162.795 44.384 163.203 46.388 163.203 48.956C163.203 51.308 162.831 53.264 162.087 54.824C161.343 56.36 160.263 57.5 158.847 58.244C157.455 58.988 155.751 59.36 153.735 59.36ZM178.065 38.984C180.273 38.984 182.061 39.848 183.429 41.576C184.797 43.28 185.48 45.8 185.48 49.136C185.48 51.368 185.157 53.252 184.509 54.788C183.861 56.3 182.973 57.44 181.845 58.208C180.717 58.976 179.409 59.36 177.921 59.36C176.985 59.36 176.169 59.24 175.473 59C174.801 58.76 174.225 58.448 173.745 58.064C173.265 57.68 172.845 57.272 172.485 56.84H172.197C172.293 57.296 172.365 57.776 172.413 58.28C172.461 58.76 172.485 59.24 172.485 59.72V67.64H167.121V39.344H171.477L172.233 41.9H172.485C172.845 41.372 173.277 40.892 173.781 40.46C174.285 40.004 174.885 39.644 175.581 39.38C176.301 39.116 177.129 38.984 178.065 38.984ZM176.337 43.268C175.401 43.268 174.657 43.46 174.105 43.844C173.553 44.228 173.145 44.816 172.881 45.608C172.641 46.376 172.509 47.348 172.485 48.524V49.1C172.485 50.372 172.605 51.452 172.845 52.34C173.085 53.204 173.493 53.864 174.069 54.32C174.645 54.776 175.425 55.004 176.409 55.004C177.225 55.004 177.897 54.776 178.425 54.32C178.953 53.864 179.349 53.192 179.613 52.304C179.877 51.416 180.009 50.336 180.009 49.064C180.009 47.144 179.709 45.704 179.109 44.744C178.533 43.76 177.609 43.268 176.337 43.268ZM207.258 49.136C207.258 50.768 207.03 52.22 206.574 53.492C206.142 54.764 205.506 55.844 204.666 56.732C203.85 57.596 202.854 58.256 201.678 58.712C200.502 59.144 199.17 59.36 197.682 59.36C196.314 59.36 195.042 59.144 193.866 58.712C192.714 58.256 191.718 57.596 190.878 56.732C190.038 55.844 189.378 54.764 188.898 53.492C188.442 52.22 188.214 50.768 188.214 49.136C188.214 46.952 188.598 45.116 189.366 43.628C190.134 42.116 191.238 40.964 192.678 40.172C194.118 39.38 195.822 38.984 197.79 38.984C199.638 38.984 201.27 39.38 202.686 40.172C204.102 40.964 205.218 42.116 206.034 43.628C206.85 45.116 207.258 46.952 207.258 49.136ZM193.686 49.136C193.686 50.432 193.818 51.524 194.082 52.412C194.37 53.276 194.814 53.936 195.414 54.392C196.014 54.824 196.794 55.04 197.754 55.04C198.714 55.04 199.482 54.824 200.058 54.392C200.658 53.936 201.09 53.276 201.354 52.412C201.642 51.524 201.786 50.432 201.786 49.136C201.786 47.84 201.642 46.76 201.354 45.896C201.09 45.032 200.658 44.384 200.058 43.952C199.458 43.52 198.678 43.304 197.718 43.304C196.302 43.304 195.27 43.796 194.622 44.78C193.998 45.74 193.686 47.192 193.686 49.136ZM210.003 47.228C210.003 44.324 210.363 41.864 211.083 39.848C211.803 37.808 212.943 36.188 214.503 34.988C216.063 33.764 218.103 32.936 220.623 32.504C221.895 32.288 223.179 32.108 224.475 31.964C225.795 31.796 227.151 31.628 228.543 31.46L229.155 36.14C228.555 36.212 227.895 36.296 227.175 36.392C226.455 36.464 225.723 36.548 224.979 36.644C224.259 36.716 223.563 36.8 222.891 36.896C222.219 36.992 221.607 37.076 221.055 37.148C220.167 37.292 219.387 37.496 218.715 37.76C218.043 38 217.479 38.348 217.023 38.804C216.567 39.26 216.207 39.884 215.943 40.676C215.703 41.444 215.547 42.44 215.475 43.664H215.727C216.015 43.208 216.411 42.752 216.915 42.296C217.443 41.84 218.091 41.456 218.859 41.144C219.627 40.832 220.503 40.676 221.487 40.676C223.047 40.676 224.403 41 225.555 41.648C226.707 42.296 227.595 43.256 228.219 44.528C228.843 45.8 229.155 47.384 229.155 49.28C229.155 51.512 228.747 53.372 227.931 54.86C227.115 56.348 225.987 57.476 224.547 58.244C223.107 58.988 221.439 59.36 219.543 59.36C218.103 59.36 216.795 59.096 215.619 58.568C214.443 58.04 213.435 57.26 212.595 56.228C211.755 55.196 211.107 53.924 210.651 52.412C210.219 50.9 210.003 49.172 210.003 47.228ZM219.867 55.004C220.635 55.004 221.295 54.836 221.847 54.5C222.423 54.164 222.867 53.612 223.179 52.844C223.515 52.076 223.683 51.044 223.683 49.748C223.683 48.188 223.419 46.952 222.891 46.04C222.387 45.104 221.499 44.636 220.227 44.636C219.459 44.636 218.739 44.828 218.067 45.212C217.419 45.572 216.867 45.992 216.411 46.472C215.955 46.928 215.643 47.324 215.475 47.66C215.475 48.596 215.547 49.508 215.691 50.396C215.835 51.26 216.075 52.04 216.411 52.736C216.747 53.432 217.191 53.984 217.743 54.392C218.319 54.8 219.027 55.004 219.867 55.004ZM238.269 47.12C238.269 47.528 238.245 48.032 238.197 48.632C238.173 49.232 238.137 49.844 238.089 50.468C238.065 51.092 238.029 51.644 237.981 52.124C237.933 52.604 237.897 52.94 237.873 53.132L246.945 39.344H253.389V59H248.205V51.152C248.205 50.504 248.229 49.796 248.277 49.028C248.325 48.236 248.373 47.504 248.421 46.832C248.493 46.136 248.541 45.608 248.565 45.248L239.529 59H233.085V39.344H238.269V47.12ZM271.384 39.344H277.288L269.512 48.776L277.972 59H271.888L263.86 49.028V59H258.496V39.344H263.86V48.884L271.384 39.344ZM288.349 38.948C290.989 38.948 293.005 39.524 294.397 40.676C295.813 41.804 296.521 43.544 296.521 45.896V59H292.777L291.733 56.336H291.589C291.037 57.032 290.461 57.608 289.861 58.064C289.285 58.52 288.613 58.844 287.845 59.036C287.101 59.252 286.177 59.36 285.073 59.36C283.921 59.36 282.877 59.144 281.941 58.712C281.029 58.256 280.309 57.572 279.781 56.66C279.253 55.724 278.989 54.548 278.989 53.132C278.989 51.044 279.721 49.508 281.185 48.524C282.649 47.516 284.845 46.964 287.773 46.868L291.193 46.76V45.896C291.193 44.864 290.917 44.108 290.365 43.628C289.837 43.148 289.093 42.908 288.133 42.908C287.173 42.908 286.237 43.052 285.325 43.34C284.413 43.604 283.501 43.94 282.589 44.348L280.825 40.712C281.881 40.16 283.045 39.728 284.317 39.416C285.613 39.104 286.957 38.948 288.349 38.948ZM289.105 49.964C287.377 50.012 286.177 50.324 285.505 50.9C284.833 51.476 284.497 52.232 284.497 53.168C284.497 53.984 284.737 54.572 285.217 54.932C285.697 55.268 286.321 55.436 287.089 55.436C288.241 55.436 289.213 55.1 290.005 54.428C290.797 53.732 291.193 52.76 291.193 51.512V49.892L289.105 49.964Z" fill="black"/>
<g style="mix-blend-mode:multiply" opacity="0.36" filter="url(#filter1_i_26_1300)">
<path fill-rule="evenodd" clip-rule="evenodd" d="M117.52 197.13C89.9074 197.13 67.5234 219.514 67.5234 247.126C67.5234 263.424 75.3213 277.9 87.3895 287.027C75.3213 296.154 67.5234 310.63 67.5234 326.928C67.5234 354.54 89.9075 376.924 117.52 376.924H272.966C300.578 376.924 322.962 354.54 322.962 326.928C322.962 310.63 315.164 296.154 303.096 287.027C315.164 277.9 322.962 263.424 322.962 247.126C322.962 219.514 300.578 197.13 272.966 197.13H117.52Z" fill="white"/>
</g>
</g>
<defs>
<filter id="filter0_b_26_1300" x="-205.037" y="-29.0373" width="618.075" height="538.075" filterUnits="userSpaceOnUse" color-interpolation-filters="sRGB">
<feFlood flood-opacity="0" result="BackgroundImageFix"/>
<feGaussianBlur in="BackgroundImageFix" stdDeviation="14.5187"/>
<feComposite in2="SourceAlpha" operator="in" result="effect1_backgroundBlur_26_1300"/>
<feBlend mode="normal" in="SourceGraphic" in2="effect1_backgroundBlur_26_1300" result="shape"/>
</filter>
<filter id="filter1_i_26_1300" x="67.5234" y="197.13" width="266.66" height="191.015" filterUnits="userSpaceOnUse" color-interpolation-filters="sRGB">
<feFlood flood-opacity="0" result="BackgroundImageFix"/>
<feBlend mode="normal" in="SourceGraphic" in2="BackgroundImageFix" result="shape"/>
<feColorMatrix in="SourceAlpha" type="matrix" values="0 0 0 0 0 0 0 0 0 0 0 0 0 0 0 0 0 0 127 0" result="hardAlpha"/>
<feOffset dx="11.2216" dy="11.2216"/>
<feGaussianBlur stdDeviation="6.07837"/>
<feComposite in2="hardAlpha" operator="arithmetic" k2="-1" k3="1"/>
<feColorMatrix type="matrix" values="0 0 0 0 0.270588 0 0 0 0 0.466667 0 0 0 0 0 0 0 0 0.5 0"/>
<feBlend mode="normal" in2="shape" result="effect1_innerShadow_26_1300"/>
</filter>
<clipPath id="clip0_26_1300">
<rect width="360" height="480" rx="29.9978" fill="white"/>
</clipPath>
</defs>
</svg>
