<svg width="360" height="480" viewBox="0 0 360 480" fill="none" xmlns="http://www.w3.org/2000/svg">
<g clip-path="url(#clip0_26_1322)">
<rect width="360" height="480" rx="29.9978" fill="white"/>
<rect x="155.522" y="188.658" width="143.394" height="134.959" rx="12.4698" transform="rotate(-22.7913 155.522 188.658)" fill="#6EE4FE"/>
<rect x="97.4746" y="276.05" width="165.289" height="155.566" rx="12.4698" transform="rotate(14.6993 97.4746 276.05)" fill="#00C1FF"/>
<g filter="url(#filter0_b_26_1322)">
<path fill-rule="evenodd" clip-rule="evenodd" d="M30 0C13.4315 0 0 13.4315 0 30V450C0 466.569 13.4315 480 30 480H330C346.569 480 360 466.569 360 450V30C360 13.4315 346.569 0 330 0H30ZM213.164 198.485C211.813 199.395 210.045 199.395 208.694 198.485L145.302 155.778C129.36 145.039 107.892 156.462 107.892 175.683L107.892 361.178C107.892 380.399 129.36 391.822 145.302 381.082L208.698 338.373C210.049 337.463 211.817 337.463 213.168 338.373L276.56 381.08C292.501 391.819 313.969 380.397 313.969 361.175L313.969 175.68C313.969 156.459 292.501 145.036 276.56 155.776L213.164 198.485Z" fill="#CDCDCD" fill-opacity="0.1"/>
</g>
<g style="mix-blend-mode:multiply" opacity="0.3" filter="url(#filter1_i_26_1322)">
<path fill-rule="evenodd" clip-rule="evenodd" d="M208.694 198.485C210.045 199.395 211.813 199.395 213.164 198.485L276.56 155.776C292.501 145.036 313.969 156.459 313.969 175.68L313.969 361.175C313.969 380.397 292.501 391.819 276.56 381.08L213.168 338.373C211.817 337.463 210.049 337.463 208.698 338.373L145.302 381.082C129.36 391.822 107.892 380.399 107.892 361.178L107.892 175.683C107.892 156.462 129.36 145.039 145.302 155.778L208.694 198.485Z" fill="white"/>
</g>
<path d="M33.24 59V33.296H49.476V37.796H38.676V43.16H40.836C43.26 43.16 45.24 43.496 46.776 44.168C48.336 44.84 49.488 45.764 50.232 46.94C50.976 48.116 51.348 49.46 51.348 50.972C51.348 52.652 50.976 54.092 50.232 55.292C49.488 56.492 48.336 57.416 46.776 58.064C45.216 58.688 43.2 59 40.728 59H33.24ZM40.512 54.536C42.168 54.536 43.464 54.272 44.4 53.744C45.36 53.216 45.84 52.292 45.84 50.972C45.84 50.06 45.6 49.364 45.12 48.884C44.664 48.404 44.004 48.08 43.14 47.912C42.3 47.72 41.28 47.624 40.08 47.624H38.676V54.536H40.512ZM73.121 49.136C73.121 50.768 72.893 52.22 72.437 53.492C72.005 54.764 71.369 55.844 70.529 56.732C69.713 57.596 68.717 58.256 67.541 58.712C66.365 59.144 65.033 59.36 63.545 59.36C62.177 59.36 60.905 59.144 59.729 58.712C58.577 58.256 57.581 57.596 56.741 56.732C55.901 55.844 55.241 54.764 54.761 53.492C54.305 52.22 54.077 50.768 54.077 49.136C54.077 46.952 54.461 45.116 55.229 43.628C55.997 42.116 57.101 40.964 58.541 40.172C59.981 39.38 61.685 38.984 63.653 38.984C65.501 38.984 67.133 39.38 68.549 40.172C69.965 40.964 71.081 42.116 71.897 43.628C72.713 45.116 73.121 46.952 73.121 49.136ZM59.549 49.136C59.549 50.432 59.681 51.524 59.945 52.412C60.233 53.276 60.677 53.936 61.277 54.392C61.877 54.824 62.657 55.04 63.617 55.04C64.577 55.04 65.345 54.824 65.921 54.392C66.521 53.936 66.953 53.276 67.217 52.412C67.505 51.524 67.649 50.432 67.649 49.136C67.649 47.84 67.505 46.76 67.217 45.896C66.953 45.032 66.521 44.384 65.921 43.952C65.321 43.52 64.541 43.304 63.581 43.304C62.165 43.304 61.133 43.796 60.485 44.78C59.861 45.74 59.549 47.192 59.549 49.136ZM94.7301 39.344V55.076H97.6101V66.056H92.7861V59H79.5741V66.056H74.7501V55.076H76.4061C77.2701 53.756 78.0021 52.256 78.6021 50.576C79.2021 48.872 79.6821 47.06 80.0421 45.14C80.4021 43.22 80.6661 41.288 80.8341 39.344H94.7301ZM85.3341 43.376C85.1421 44.816 84.9021 46.22 84.6141 47.588C84.3261 48.932 83.9661 50.228 83.5341 51.476C83.1261 52.724 82.6221 53.924 82.0221 55.076H89.3661V43.376H85.3341ZM105.644 47.12C105.644 47.528 105.62 48.032 105.572 48.632C105.548 49.232 105.512 49.844 105.464 50.468C105.44 51.092 105.404 51.644 105.356 52.124C105.308 52.604 105.272 52.94 105.248 53.132L114.32 39.344H120.764V59H115.58V51.152C115.58 50.504 115.604 49.796 115.652 49.028C115.7 48.236 115.748 47.504 115.796 46.832C115.868 46.136 115.916 45.608 115.94 45.248L106.904 59H100.46V39.344H105.644V47.12ZM140.235 39.236C142.515 39.428 144.435 39.968 145.995 40.856C147.555 41.72 148.731 42.86 149.523 44.276C150.339 45.692 150.747 47.324 150.747 49.172C150.747 50.996 150.351 52.628 149.559 54.068C148.791 55.508 147.627 56.672 146.067 57.56C144.531 58.424 142.587 58.952 140.235 59.144V67.64H135.267V59.144C133.011 58.928 131.091 58.388 129.507 57.524C127.947 56.636 126.747 55.484 125.907 54.068C125.091 52.628 124.683 50.996 124.683 49.172C124.683 47.3 125.055 45.644 125.799 44.204C126.567 42.764 127.731 41.612 129.291 40.748C130.875 39.884 132.867 39.38 135.267 39.236V31.64H140.235V39.236ZM135.267 43.268C134.235 43.412 133.335 43.76 132.566 44.312C131.799 44.84 131.211 45.524 130.803 46.364C130.395 47.18 130.191 48.116 130.191 49.172C130.191 50.228 130.383 51.176 130.767 52.016C131.175 52.856 131.751 53.54 132.495 54.068C133.263 54.596 134.187 54.932 135.267 55.076V43.268ZM140.235 55.076C141.315 54.932 142.227 54.596 142.971 54.068C143.715 53.54 144.279 52.856 144.663 52.016C145.047 51.176 145.239 50.228 145.239 49.172C145.239 48.116 145.035 47.18 144.627 46.364C144.219 45.524 143.643 44.84 142.898 44.312C142.155 43.784 141.267 43.46 140.235 43.34V55.076ZM172.295 59H166.931V43.376H161.999C161.759 46.256 161.459 48.716 161.099 50.756C160.763 52.772 160.331 54.416 159.803 55.688C159.299 56.96 158.651 57.896 157.859 58.496C157.067 59.072 156.095 59.36 154.943 59.36C154.319 59.36 153.755 59.312 153.251 59.216C152.747 59.12 152.291 58.976 151.883 58.784V54.5C152.147 54.596 152.423 54.68 152.711 54.752C152.999 54.824 153.299 54.86 153.611 54.86C153.947 54.86 154.259 54.728 154.547 54.464C154.859 54.2 155.147 53.732 155.411 53.06C155.699 52.388 155.963 51.464 156.203 50.288C156.443 49.112 156.659 47.636 156.851 45.86C157.067 44.06 157.259 41.888 157.427 39.344H172.295V59ZM185.494 38.984C187.318 38.984 188.878 39.332 190.174 40.028C191.494 40.724 192.514 41.732 193.234 43.052C193.954 44.372 194.314 45.992 194.314 47.912V50.504H181.642C181.69 52.016 182.134 53.204 182.974 54.068C183.838 54.932 185.026 55.364 186.538 55.364C187.81 55.364 188.962 55.244 189.994 55.004C191.026 54.74 192.094 54.344 193.198 53.816V57.956C192.238 58.436 191.218 58.784 190.138 59C189.082 59.24 187.798 59.36 186.286 59.36C184.318 59.36 182.578 59 181.066 58.28C179.554 57.536 178.366 56.42 177.502 54.932C176.638 53.444 176.206 51.572 176.206 49.316C176.206 47.012 176.59 45.104 177.358 43.592C178.15 42.056 179.242 40.904 180.634 40.136C182.026 39.368 183.646 38.984 185.494 38.984ZM185.53 42.8C184.498 42.8 183.634 43.136 182.938 43.808C182.266 44.48 181.87 45.524 181.75 46.94H189.274C189.274 46.148 189.13 45.44 188.842 44.816C188.578 44.192 188.17 43.7 187.618 43.34C187.066 42.98 186.37 42.8 185.53 42.8ZM211.051 39.344H216.955L209.179 48.776L217.639 59H211.555L203.527 49.028V59H198.163V39.344H203.527V48.884L211.051 39.344ZM227.241 59.36C225.297 59.36 223.641 59.012 222.273 58.316C220.905 57.596 219.861 56.492 219.141 55.004C218.421 53.516 218.061 51.608 218.061 49.28C218.061 46.88 218.469 44.924 219.285 43.412C220.101 41.9 221.229 40.784 222.669 40.064C224.133 39.344 225.813 38.984 227.709 38.984C229.053 38.984 230.217 39.116 231.201 39.38C232.209 39.644 233.085 39.956 233.829 40.316L232.245 44.456C231.405 44.12 230.613 43.844 229.869 43.628C229.149 43.412 228.429 43.304 227.709 43.304C226.773 43.304 225.993 43.532 225.369 43.988C224.745 44.42 224.277 45.08 223.965 45.968C223.677 46.832 223.533 47.924 223.533 49.244C223.533 50.54 223.689 51.62 224.001 52.484C224.337 53.324 224.817 53.96 225.441 54.392C226.065 54.8 226.821 55.004 227.709 55.004C228.837 55.004 229.833 54.86 230.697 54.572C231.561 54.26 232.401 53.84 233.217 53.312V57.884C232.401 58.412 231.537 58.784 230.625 59C229.737 59.24 228.609 59.36 227.241 59.36Z" fill="black"/>
</g>
<defs>
<filter id="filter0_b_26_1322" x="-20" y="-20" width="400" height="520" filterUnits="userSpaceOnUse" color-interpolation-filters="sRGB">
<feFlood flood-opacity="0" result="BackgroundImageFix"/>
<feGaussianBlur in="BackgroundImageFix" stdDeviation="10"/>
<feComposite in2="SourceAlpha" operator="in" result="effect1_backgroundBlur_26_1322"/>
<feBlend mode="normal" in="SourceGraphic" in2="effect1_backgroundBlur_26_1322" result="shape"/>
</filter>
<filter id="filter1_i_26_1322" x="107.892" y="151.64" width="216.077" height="243.579" filterUnits="userSpaceOnUse" color-interpolation-filters="sRGB">
<feFlood flood-opacity="0" result="BackgroundImageFix"/>
<feBlend mode="normal" in="SourceGraphic" in2="BackgroundImageFix" result="shape"/>
<feColorMatrix in="SourceAlpha" type="matrix" values="0 0 0 0 0 0 0 0 0 0 0 0 0 0 0 0 0 0 127 0" result="hardAlpha"/>
<feOffset dx="10" dy="10"/>
<feGaussianBlur stdDeviation="5.5"/>
<feComposite in2="hardAlpha" operator="arithmetic" k2="-1" k3="1"/>
<feColorMatrix type="matrix" values="0 0 0 0 0.219608 0 0 0 0 0.737255 0 0 0 0 0.929412 0 0 0 1 0"/>
<feBlend mode="normal" in2="shape" result="effect1_innerShadow_26_1322"/>
</filter>
<clipPath id="clip0_26_1322">
<rect width="360" height="480" rx="29.9978" fill="white"/>
</clipPath>
</defs>
</svg>
